# File created by Blade
# Date/Time:  Tue Sep 30 19:10:28 2014
#---------------------------------------------------------
:version 1.10
:name HOM
:units
  mass 1.0
  length 1.000000
  angle deg
:documentation
     Acclaim Skeleton File
:root
   axis xyz
   order TX TY TZ RX RY RZ
   position 0.000000 0.000000 0.000000
   orientation 0 0 0
:bonedata
   begin
      id 1
      name Spine_dum
      direction 0.000000 1.000000 0.000000
      length 7.508948
      axis 0.0 0.0 0.0 xyz
   end
   begin
      id 2
      name LeftUpLeg_dum
      direction 1.000000 0.000000 0.000000
      length 3.000560
      axis 0.0 0.0 0.0 xyz
   end
   begin
      id 3
      name RightUpLeg_dum
      direction -1.000000 0.000000 0.000000
      length 3.000560
      axis 0.0 0.0 0.0 xyz
   end
   begin
      id 4
      name Spine
      direction 0.000000 1.000000 0.000000
      length 0.000000
      axis 0.0 0.0 0.0 xyz
      dof rx ry rz
   end
   begin
      id 5
      name Spine_dum1
      direction 0.000000 1.000000 0.000000
      length 13.861154
      axis 0.0 0.0 0.0 xyz
   end
   begin
      id 6
      name Spine_dum2
      direction 0.000000 1.000000 0.000000
      length 8.204781
      axis 0.0 0.0 0.0 xyz
   end
   begin
      id 7
      name Spine_dum3
      direction 0.000000 1.000000 0.000000
      length 8.204781
      axis 0.0 0.0 0.0 xyz
   end
   begin
      id 8
      name Head
      direction 0.000000 1.000000 0.000000
      length 4.527550
      axis 0.0 0.0 0.0 xyz
      dof rx ry rz
   end
   begin
      id 9
      name LeftShoulder
      direction 1.000000 0.000000 0.000000
      length 6.635956
      axis 0.0 0.0 -90.0 xyz
      dof rx ry rz
   end
   begin
      id 10
      name LeftArm
      direction 1.000000 0.000000 0.000000
      length 10.274218
      axis 0.0 0.0 -90.0 xyz
      dof rx ry rz
   end
   begin
      id 11
      name LeftForeArm
      direction 1.000000 0.000000 0.000000
      length 8.522147
      axis 0.0 0.0 -90.0 xyz
      dof ry rz rx
   end
   begin
      id 12
      name LeftHand
      direction 0.000000 0.000000 0.000000
      length 0.000000
      axis 0.0 0.0 -90.0 xyz
      dof rx ry rz
   end
   begin
      id 13
      name LeftHand_dum1
      direction 0.000000 0.000000 0.000000
      length 0.000000
      axis 0.0 0.0 -90.0 xyz
   end
   begin
      id 14
      name LeftHand_dum2
      direction 1.000000 0.000000 0.000000
      length 3.937000
      axis 0.0 0.0 -90.0 xyz
   end
   begin
      id 15
      name LeftHandThumb1
      direction 0.000000 0.000000 1.000000
      length 3.937000
      axis 0.0 0.0 -90.0 xyz
      dof rx rz ry
   end
   begin
      id 16
      name RightShoulder
      direction -1.000000 0.000000 0.000000
      length 6.635956
      axis 0.0 0.0 90.0 xyz
      dof rx ry rz
   end
   begin
      id 17
      name RightArm
      direction -1.000000 0.000000 0.000000
      length 10.274218
      axis 0.0 0.0 90.0 xyz
      dof rx ry rz
   end
   begin
      id 18
      name RightForeArm
      direction -1.000000 0.000000 0.000000
      length 8.522147
      axis 0.0 0.0 90.0 xyz
      dof ry rz rx
   end
   begin
      id 19
      name RightHand
      direction 0.000000 0.000000 0.000000
      length 0.000000
      axis 0.0 0.0 90.0 xyz
      dof rx ry rz
   end
   begin
      id 20
      name RightHand_dum1
      direction 0.000000 0.000000 0.000000
      length 0.000000
      axis 0.0 0.0 90.0 xyz
   end
   begin
      id 21
      name RightHand_dum2
      direction -1.000000 0.000000 0.000000
      length 3.937000
      axis 0.0 0.0 90.0 xyz
   end
   begin
      id 22
      name RightHandThumb1
      direction 0.000000 0.000000 1.000000
      length 3.937000
      axis 0.0 0.0 90.0 xyz
      dof rx rz ry
   end
   begin
      id 23
      name LeftUpLeg
      direction 0.000000 -1.000000 0.000000
      length 16.490845
      axis 0.0 0.0 0.0 xyz
      dof rx ry rz
   end
   begin
      id 24
      name LeftLeg
      direction 0.000000 -1.000000 0.000000
      length 14.556576
      axis 0.0 0.0 0.0 xyz
      dof rx ry rz
   end
   begin
      id 25
      name LeftFoot
      direction 0.000000 -0.258819 0.965926
      length 4.831116
      axis 15.0 0.0 0.0 xyz
      dof rx ry rz
   end
   begin
      id 26
      name LeftToeBase
      direction 0.000000 0.000000 1.000000
      length 2.952750
      axis 0.0 0.0 0.0 xyz
      dof rx ry rz
   end
   begin
      id 27
      name RightUpLeg
      direction 0.000000 -1.000000 0.000000
      length 16.490845
      axis 0.0 0.0 0.0 xyz
      dof rx ry rz
   end
   begin
      id 28
      name RightLeg
      direction 0.000000 -1.000000 0.000000
      length 14.556576
      axis 0.0 0.0 0.0 xyz
      dof rx ry rz
   end
   begin
      id 29
      name RightFoot
      direction 0.000000 -0.258819 0.965926
      length 4.831116
      axis 15.0 0.0 0.0 xyz
      dof rx ry rz
   end
   begin
      id 30
      name RightToeBase
      direction 0.000000 0.000000 1.000000
      length 2.952750
      axis 0.0 0.0 0.0 xyz
      dof rx ry rz
   end
:hierarchy
   begin
      root Spine_dum LeftUpLeg_dum RightUpLeg_dum
      Spine_dum Spine
      LeftUpLeg_dum LeftUpLeg
      RightUpLeg_dum RightUpLeg
      Spine Spine_dum1 Spine_dum2 Spine_dum3
      Spine_dum1 Head
      Spine_dum2 LeftShoulder
      Spine_dum3 RightShoulder
      LeftShoulder LeftArm
      LeftArm LeftForeArm
      LeftForeArm LeftHand
      LeftHand LeftHand_dum1 LeftHand_dum2
      LeftHand_dum1 LeftHandThumb1
      RightShoulder RightArm
      RightArm RightForeArm
      RightForeArm RightHand
      RightHand RightHand_dum1 RightHand_dum2
      RightHand_dum1 RightHandThumb1
      LeftUpLeg LeftLeg
      LeftLeg LeftFoot
      LeftFoot LeftToeBase
      RightUpLeg RightLeg
      RightLeg RightFoot
      RightFoot RightToeBase
   end

# File created by Blade
# Date/Time:  Wed Sep 24 19:10:19 2014
# Frame Rate: 120.000 fps
#------------------------------------------------------
:FULLY-SPECIFIED
:DEGREES
561
root -6.415788 33.485540 -2.617943 -6.405126 -27.631091 13.619428
Spine -2.828881 8.305390 -8.146124
Head 5.949246 -6.329863 2.094619
LeftShoulder -9.883961 17.551768 13.412681
LeftArm 11.485030 -29.965171 -66.107558
LeftForeArm 10.173852 -0.000000 65.018086
LeftHand -36.585064 0.000000 49.235781
LeftHandThumb1 -26.253704 0.000000 33.147579
RightShoulder -18.621296 9.451992 -20.006873
RightArm -16.569967 -28.542468 92.953748
RightForeArm -21.035435 -0.000000 22.300004
RightHand -5.059277 -0.000000 10.512531
RightHandThumb1 -24.326973 -0.000000 -32.862282
LeftUpLeg -78.644395 -4.644674 -0.612183
LeftLeg 14.424530 -0.000000 -0.000000
LeftFoot 39.997700 7.452958 -12.918795
LeftToeBase 8.420753 -0.000000 -0.000000
RightUpLeg -5.625414 5.123609 -10.010824
RightLeg 17.679080 -0.000000 -0.000000
RightFoot -12.901955 5.618043 -10.173039
RightToeBase -3.276853 -0.000000 0.000000
562
root -6.420911 33.488174 -2.616819 -6.337864 -27.647146 13.635939
Spine -2.875316 8.336284 -8.185975
Head 5.892496 -6.328335 2.125849
LeftShoulder -9.900917 17.585599 13.415892
LeftArm 11.454875 -29.899572 -65.985284
LeftForeArm 9.995394 -0.000000 64.960383
LeftHand -36.579578 -0.000000 49.307450
LeftHandThumb1 -26.253704 0.000000 33.147579
RightShoulder -18.646047 9.419992 -20.003159
RightArm -16.612203 -28.533129 92.945823
RightForeArm -21.034247 -0.000000 22.356956
RightHand -5.139847 0.000000 10.404523
RightHandThumb1 -24.326973 -0.000000 -32.862282
LeftUpLeg -78.457220 -4.665226 -0.545782
LeftLeg 14.611255 -0.000000 -0.000000
LeftFoot 39.903247 7.561025 -13.029902
LeftToeBase 8.315712 -0.000000 -0.000000
RightUpLeg -5.693519 5.190383 -10.013789
RightLeg 17.673701 -0.000000 -0.000000
RightFoot -12.851528 5.554723 -10.233803
RightToeBase -3.603044 -0.000000 0.000000
563
root -6.422878 33.490183 -2.614298 -6.266586 -27.625806 13.654203
Spine -2.926884 8.316814 -8.215999
Head 5.857689 -6.288462 2.135854
LeftShoulder -9.924669 17.682539 13.436029
LeftArm 11.485912 -29.891618 -65.975951
LeftForeArm 9.878617 -0.000000 64.901190
LeftHand -36.526536 0.000000 49.178388
LeftHandThumb1 -26.253704 0.000000 33.147579
RightShoulder -18.619478 9.386941 -19.998185
RightArm -16.650992 -28.501034 92.920433
RightForeArm -21.023760 0.000000 22.415230
RightHand -5.171408 -0.000000 10.364382
RightHandThumb1 -24.326973 -0.000000 -32.862282
LeftUpLeg -78.283510 -4.734156 -0.516556
LeftLeg 14.838387 -0.000000 -0.000000
LeftFoot 39.777276 7.659398 -13.019918
LeftToeBase 8.224278 -0.000000 -0.000000
RightUpLeg -5.751789 5.212871 -10.034337
RightLeg 17.651686 -0.000000 -0.000000
RightFoot -12.828311 5.511819 -10.241008
RightToeBase -3.605805 -0.000000 0.000000
564
root -6.424737 33.492536 -2.612033 -6.193523 -27.592188 13.669092
Spine -2.970642 8.314700 -8.241233
Head 5.825356 -6.257659 2.141781
LeftShoulder -9.960454 17.775241 13.418714
LeftArm 11.565888 -29.849140 -65.930966
LeftForeArm 9.718115 0.000000 64.834681
LeftHand -36.455764 -0.000000 49.143556
LeftHandThumb1 -26.253704 0.000000 33.147579
RightShoulder -18.624731 9.369142 -20.000368
RightArm -16.647086 -28.348823 92.858368
RightForeArm -21.129443 -0.000000 22.390584
RightHand -5.122945 -0.000000 10.487782
RightHandThumb1 -24.326973 -0.000000 -32.862282
LeftUpLeg -78.122796 -4.811258 -0.511001
LeftLeg 15.100741 -0.000000 -0.000000
LeftFoot 39.719661 7.770858 -12.979130
LeftToeBase 8.181945 -0.000000 -0.000000
RightUpLeg -5.802617 5.238145 -10.053076
RightLeg 17.626491 -0.000000 -0.000000
RightFoot -12.807787 5.408673 -10.171449
RightToeBase -3.472543 -0.000000 0.000000
565
root -6.428959 33.494096 -2.609612 -6.149260 -27.546464 13.681057
Spine -2.966250 8.289301 -8.262826
Head 5.771512 -6.214861 2.147413
LeftShoulder -10.033222 17.864076 13.429189
LeftArm 11.695518 -29.804909 -65.957153
LeftForeArm 9.621973 -0.000000 64.727926
LeftHand -36.360505 0.000000 48.981187
LeftHandThumb1 -26.253704 0.000000 33.147579
RightShoulder -18.613471 9.358352 -20.005478
RightArm -16.689857 -28.320326 92.843710
RightForeArm -21.146592 -0.000000 22.449959
RightHand -5.094810 -0.000000 10.458127
RightHandThumb1 -24.326973 -0.000000 -32.862282
LeftUpLeg -77.967579 -4.813386 -0.578853
LeftLeg 15.503474 -0.000000 -0.000000
LeftFoot 39.705777 7.789117 -13.468255
LeftToeBase 7.857070 -0.000000 -0.000000
RightUpLeg -5.815360 5.244739 -10.064101
RightLeg 17.589680 -0.000000 -0.000000
RightFoot -12.807951 5.398860 -10.197740
RightToeBase -3.442765 -0.000000 0.000000
566
root -6.434671 33.493828 -2.608160 -6.052069 -27.506748 13.646949
Spine -3.005209 8.298201 -8.234577
Head 5.727601 -6.223946 2.136882
LeftShoulder -10.054918 17.892054 13.367639
LeftArm 11.688084 -29.709025 -65.781433
LeftForeArm 9.434037 -0.000000 64.720320
LeftHand -36.399627 -0.000000 48.954519
LeftHandThumb1 -26.253704 0.000000 33.147579
RightShoulder -18.651955 9.336438 -20.041876
RightArm -16.759085 -28.290626 92.838691
RightForeArm -21.145384 -0.000000 22.535576
RightHand -5.130029 -0.000000 10.394231
RightHandThumb1 -24.326973 -0.000000 -32.862282
LeftUpLeg -77.898575 -4.877312 -0.579912
LeftLeg 16.082812 -0.000000 -0.000000
LeftFoot 39.582037 7.754011 -13.305883
LeftToeBase 7.785465 -0.000000 -0.000000
RightUpLeg -5.851924 5.250949 -10.032919
RightLeg 17.535653 -0.000000 -0.000000
RightFoot -12.768905 5.326839 -10.238841
RightToeBase -3.537089 -0.000000 0.000000
567
root -6.440177 33.493339 -2.607184 -5.936714 -27.409270 13.611486
Spine -3.069094 8.240675 -8.224883
Head 5.699750 -6.232099 2.157126
LeftShoulder -10.078462 17.953738 13.342334
LeftArm 11.636825 -29.556583 -65.589246
LeftForeArm 9.227029 0.000000 64.745014
LeftHand -36.331996 0.000000 48.815616
LeftHandThumb1 -26.253704 0.000000 33.147579
RightShoulder -18.655924 9.280373 -20.049342
RightArm -16.778873 -28.238541 92.801075
RightForeArm -21.167546 -0.000000 22.589486
RightHand -5.128862 -0.000000 10.407544
RightHandThumb1 -24.326973 -0.000000 -32.862282
LeftUpLeg -77.895245 -5.002203 -0.584277
LeftLeg 16.832562 -0.000000 -0.000000
LeftFoot 39.562559 7.715400 -13.123579
LeftToeBase 7.661482 -0.000000 -0.000000
RightUpLeg -5.885902 5.218924 -10.008176
RightLeg 17.475835 -0.000000 -0.000000
RightFoot -12.773935 5.288168 -10.200652
RightToeBase -3.445548 -0.000000 0.000000
568
root -6.446256 33.490876 -2.605004 -5.830746 -27.348553 13.540994
Spine -3.106007 8.234500 -8.141713
Head 5.670178 -6.229919 2.112739
LeftShoulder -10.050309 17.949071 13.279319
LeftArm 11.402078 -29.268701 -65.207992
LeftForeArm 8.840670 0.000000 64.847461
LeftHand -36.242171 0.000000 48.886210
LeftHandThumb1 -26.253704 0.000000 33.147579
RightShoulder -18.647647 9.229155 -20.096529
RightArm -16.796544 -28.149570 92.760647
RightForeArm -21.168462 -0.000000 22.636994
RightHand -5.134556 -0.000000 10.492641
RightHandThumb1 -24.326973 -0.000000 -32.862282
LeftUpLeg -77.971742 -5.103510 -0.525906
LeftLeg 17.891646 -0.000000 -0.000000
LeftFoot 39.550668 7.687868 -13.131554
LeftToeBase 7.475156 -0.000000 -0.000000
RightUpLeg -5.905079 5.226995 -9.947773
RightLeg 17.426034 -0.000000 -0.000000
RightFoot -12.749907 5.174082 -10.157041
RightToeBase -3.429305 -0.000000 0.000000
569
root -6.453990 33.487085 -2.601100 -5.721791 -27.287677 13.436137
Spine -3.134676 8.241621 -8.022658
Head 5.650359 -6.243017 2.069329
LeftShoulder -10.042313 17.982589 13.229287
LeftArm 11.354861 -29.147937 -65.062141
LeftForeArm 8.662764 -0.000000 64.910511
LeftHand -36.299792 -0.000000 48.955966
LeftHandThumb1 -26.253704 0.000000 33.147579
RightShoulder -18.656419 9.196362 -20.154908
RightArm -16.838015 -28.079741 92.721996
RightForeArm -21.154463 -0.000000 22.673017
RightHand -5.094619 -0.000000 10.526881
RightHandThumb1 -24.326973 -0.000000 -32.862282
LeftUpLeg -78.112895 -5.197145 -0.465551
LeftLeg 19.215274 -0.000000 -0.000000
LeftFoot 39.509871 7.447425 -12.894171
LeftToeBase 7.702413 -0.000000 -0.000000
RightUpLeg -5.903209 5.242129 -9.854581
RightLeg 17.363309 -0.000000 -0.000000
RightFoot -12.754348 5.177457 -10.146132
RightToeBase -3.406785 -0.000000 0.000000
